# xmcd
# 
# Track frame offsets:
#     150
#     16292
#     37737
#     58482
# 
# Disc length: 1213
# 
# Revision: 12
# Processed by: cddbd v1.5.2PL0 Copyright (c) Steve Scherf et al.
# Submitted via: fre:ac v1.0.17
# 
DISCID=2b04bb04
DTITLE=The Cure - High
DYEAR=1992
DGENRE=Popock*
TTITLE0=High (Single Mix)
TTITLE1=This Twilight Garden
TTITLE2=Play
TTITLE3=High (Higher Mix)
EXTD=
EXTT0=
EXTT1=
EXTT2=
EXTT3=
PLAYORDER=
